# xmcd
# Track frame offsets:
# 150
# 17723
# 34116
# 51512
# 65541
#
# Disc length: 1053 seconds
# Revision: 0
# Processed by: cddbd v1.5.2PL0 Copyright (c) Steve Scherf et al.
# Submitted via: VisiTrax 2.10.3.257 - For more info visit www.synapsa.com
#
DISCID=40041b05
DTITLE=Various Artist - Universal Music Country Sampler
DYEAR=2006
DGENRE=Country
TTITLE0=Brodie, Karl - Diamond in the Dark
TTITLE1=Cash, Johnny - Hurt
TTITLE2=Womack, Lee Ann - Twenty Years and Two Husbands ago
TTITLE3=Nichols, Joe - Tequila makes her Clothes Fall Off
TTITLE4=Keith, Toby - Big Blue Note
EXTD=
EXTT0=
EXTT1=
EXTT2=
EXTT3=
EXTT4=
PLAYORDER=
